<?xml version="1.0" standalone="no"?>
<svg xmlns:xlink="http://www.w3.org/1999/xlink" id="wave" style="transform:rotate(180deg); transition: 0.3s" viewBox="0 0 1440 100" version="1.1" xmlns="http://www.w3.org/2000/svg"><defs><linearGradient id="sw-gradient-0" x1="0" x2="0" y1="1" y2="0"><stop stop-color="rgba(249, 141, 168, 1)" offset="0%"/><stop stop-color="rgba(249, 141, 168, 1)" offset="100%"/></linearGradient></defs><path style="transform:translate(0, 0px); opacity:1" fill="url(#sw-gradient-0)" d="M0,90L17.1,83.3C34.3,77,69,63,103,50C137.1,37,171,23,206,30C240,37,274,63,309,65C342.9,67,377,43,411,41.7C445.7,40,480,60,514,65C548.6,70,583,60,617,51.7C651.4,43,686,37,720,30C754.3,23,789,17,823,25C857.1,33,891,57,926,66.7C960,77,994,73,1029,73.3C1062.9,73,1097,77,1131,66.7C1165.7,57,1200,33,1234,35C1268.6,37,1303,63,1337,61.7C1371.4,60,1406,30,1440,26.7C1474.3,23,1509,47,1543,50C1577.1,53,1611,37,1646,30C1680,23,1714,27,1749,35C1782.9,43,1817,57,1851,55C1885.7,53,1920,37,1954,30C1988.6,23,2023,27,2057,23.3C2091.4,20,2126,10,2160,6.7C2194.3,3,2229,7,2263,10C2297.1,13,2331,17,2366,23.3C2400,30,2434,40,2451,45L2468.6,50L2468.6,100L2451.4,100C2434.3,100,2400,100,2366,100C2331.4,100,2297,100,2263,100C2228.6,100,2194,100,2160,100C2125.7,100,2091,100,2057,100C2022.9,100,1989,100,1954,100C1920,100,1886,100,1851,100C1817.1,100,1783,100,1749,100C1714.3,100,1680,100,1646,100C1611.4,100,1577,100,1543,100C1508.6,100,1474,100,1440,100C1405.7,100,1371,100,1337,100C1302.9,100,1269,100,1234,100C1200,100,1166,100,1131,100C1097.1,100,1063,100,1029,100C994.3,100,960,100,926,100C891.4,100,857,100,823,100C788.6,100,754,100,720,100C685.7,100,651,100,617,100C582.9,100,549,100,514,100C480,100,446,100,411,100C377.1,100,343,100,309,100C274.3,100,240,100,206,100C171.4,100,137,100,103,100C68.6,100,34,100,17,100L0,100Z"/></svg>