<?xml version="1.0" standalone="no"?>
<svg xmlns:xlink="http://www.w3.org/1999/xlink" id="wave" style="transform:rotate(180deg); transition: 0.3s" viewBox="0 0 1440 100" version="1.1" xmlns="http://www.w3.org/2000/svg"><defs><linearGradient id="sw-gradient-0" x1="0" x2="0" y1="1" y2="0"><stop stop-color="rgba(255, 175, 83, 1)" offset="0%"/><stop stop-color="rgba(255, 175, 83, 1)" offset="100%"/></linearGradient></defs><path style="transform:translate(0, 0px); opacity:1" fill="url(#sw-gradient-0)" d="M0,10L26.7,23.3C53.3,37,107,63,160,68.3C213.3,73,267,57,320,51.7C373.3,47,427,53,480,61.7C533.3,70,587,80,640,81.7C693.3,83,747,77,800,65C853.3,53,907,37,960,33.3C1013.3,30,1067,40,1120,41.7C1173.3,43,1227,37,1280,28.3C1333.3,20,1387,10,1440,8.3C1493.3,7,1547,13,1600,20C1653.3,27,1707,33,1760,38.3C1813.3,43,1867,47,1920,53.3C1973.3,60,2027,70,2080,73.3C2133.3,77,2187,73,2240,63.3C2293.3,53,2347,37,2400,35C2453.3,33,2507,47,2560,45C2613.3,43,2667,27,2720,31.7C2773.3,37,2827,63,2880,61.7C2933.3,60,2987,30,3040,25C3093.3,20,3147,40,3200,48.3C3253.3,57,3307,53,3360,55C3413.3,57,3467,63,3520,56.7C3573.3,50,3627,30,3680,21.7C3733.3,13,3787,17,3813,18.3L3840,20L3840,100L3813.3,100C3786.7,100,3733,100,3680,100C3626.7,100,3573,100,3520,100C3466.7,100,3413,100,3360,100C3306.7,100,3253,100,3200,100C3146.7,100,3093,100,3040,100C2986.7,100,2933,100,2880,100C2826.7,100,2773,100,2720,100C2666.7,100,2613,100,2560,100C2506.7,100,2453,100,2400,100C2346.7,100,2293,100,2240,100C2186.7,100,2133,100,2080,100C2026.7,100,1973,100,1920,100C1866.7,100,1813,100,1760,100C1706.7,100,1653,100,1600,100C1546.7,100,1493,100,1440,100C1386.7,100,1333,100,1280,100C1226.7,100,1173,100,1120,100C1066.7,100,1013,100,960,100C906.7,100,853,100,800,100C746.7,100,693,100,640,100C586.7,100,533,100,480,100C426.7,100,373,100,320,100C266.7,100,213,100,160,100C106.7,100,53,100,27,100L0,100Z"/></svg>