<?xml version="1.0" standalone="no"?>
<svg xmlns:xlink="http://www.w3.org/1999/xlink" id="wave" style="transform:rotate(180deg); transition: 0.3s" viewBox="0 0 1440 100" version="1.1" xmlns="http://www.w3.org/2000/svg"><defs><linearGradient id="sw-gradient-0" x1="0" x2="0" y1="1" y2="0"><stop stop-color="rgba(18, 153, 144, 1)" offset="0%"/><stop stop-color="rgba(18, 153, 144, 1)" offset="100%"/></linearGradient></defs><path style="transform:translate(0, 0px); opacity:1" fill="url(#sw-gradient-0)" d="M0,10L21.8,23.3C43.6,37,87,63,131,76.7C174.5,90,218,90,262,78.3C305.5,67,349,43,393,33.3C436.4,23,480,27,524,38.3C567.3,50,611,70,655,80C698.2,90,742,90,785,85C829.1,80,873,70,916,61.7C960,53,1004,47,1047,51.7C1090.9,57,1135,73,1178,66.7C1221.8,60,1265,30,1309,25C1352.7,20,1396,40,1440,55C1483.6,70,1527,80,1571,71.7C1614.5,63,1658,37,1702,23.3C1745.5,10,1789,10,1833,20C1876.4,30,1920,50,1964,48.3C2007.3,47,2051,23,2095,16.7C2138.2,10,2182,20,2225,23.3C2269.1,27,2313,23,2356,21.7C2400,20,2444,20,2487,30C2530.9,40,2575,60,2618,60C2661.8,60,2705,40,2749,28.3C2792.7,17,2836,13,2880,20C2923.6,27,2967,43,3011,53.3C3054.5,63,3098,67,3120,68.3L3141.8,70L3141.8,100L3120,100C3098.2,100,3055,100,3011,100C2967.3,100,2924,100,2880,100C2836.4,100,2793,100,2749,100C2705.5,100,2662,100,2618,100C2574.5,100,2531,100,2487,100C2443.6,100,2400,100,2356,100C2312.7,100,2269,100,2225,100C2181.8,100,2138,100,2095,100C2050.9,100,2007,100,1964,100C1920,100,1876,100,1833,100C1789.1,100,1745,100,1702,100C1658.2,100,1615,100,1571,100C1527.3,100,1484,100,1440,100C1396.4,100,1353,100,1309,100C1265.5,100,1222,100,1178,100C1134.5,100,1091,100,1047,100C1003.6,100,960,100,916,100C872.7,100,829,100,785,100C741.8,100,698,100,655,100C610.9,100,567,100,524,100C480,100,436,100,393,100C349.1,100,305,100,262,100C218.2,100,175,100,131,100C87.3,100,44,100,22,100L0,100Z"/></svg>