<?xml version="1.0" standalone="no"?>
<svg xmlns:xlink="http://www.w3.org/1999/xlink" id="wave" style="transform:rotate(180deg); transition: 0.3s" viewBox="0 0 1440 100" version="1.1" xmlns="http://www.w3.org/2000/svg"><defs><linearGradient id="sw-gradient-0" x1="0" x2="0" y1="1" y2="0"><stop stop-color="rgba(255, 233, 154, 1)" offset="0%"/><stop stop-color="rgba(255, 233, 154, 1)" offset="100%"/></linearGradient></defs><path style="transform:translate(0, 0px); opacity:1" fill="url(#sw-gradient-0)" d="M0,30L10,28.3C20,27,40,23,60,33.3C80,43,100,67,120,75C140,83,160,77,180,61.7C200,47,220,23,240,16.7C260,10,280,20,300,31.7C320,43,340,57,360,63.3C380,70,400,70,420,70C440,70,460,70,480,73.3C500,77,520,83,540,85C560,87,580,83,600,76.7C620,70,640,60,660,53.3C680,47,700,43,720,50C740,57,760,73,780,68.3C800,63,820,37,840,36.7C860,37,880,63,900,75C920,87,940,83,960,80C980,77,1000,73,1020,66.7C1040,60,1060,50,1080,43.3C1100,37,1120,33,1140,36.7C1160,40,1180,50,1200,50C1220,50,1240,40,1260,36.7C1280,33,1300,37,1320,46.7C1340,57,1360,73,1380,73.3C1400,73,1420,57,1430,48.3L1440,40L1440,100L1430,100C1420,100,1400,100,1380,100C1360,100,1340,100,1320,100C1300,100,1280,100,1260,100C1240,100,1220,100,1200,100C1180,100,1160,100,1140,100C1120,100,1100,100,1080,100C1060,100,1040,100,1020,100C1000,100,980,100,960,100C940,100,920,100,900,100C880,100,860,100,840,100C820,100,800,100,780,100C760,100,740,100,720,100C700,100,680,100,660,100C640,100,620,100,600,100C580,100,560,100,540,100C520,100,500,100,480,100C460,100,440,100,420,100C400,100,380,100,360,100C340,100,320,100,300,100C280,100,260,100,240,100C220,100,200,100,180,100C160,100,140,100,120,100C100,100,80,100,60,100C40,100,20,100,10,100L0,100Z"/></svg>