<?xml version="1.0" standalone="no"?>
<svg xmlns:xlink="http://www.w3.org/1999/xlink" id="wave" style="transform:rotate(180deg); transition: 0.3s" viewBox="0 0 1440 100" version="1.1" xmlns="http://www.w3.org/2000/svg"><defs><linearGradient id="sw-gradient-0" x1="0" x2="0" y1="1" y2="0"><stop stop-color="rgba(200, 38, 23, 1)" offset="0%"/><stop stop-color="rgba(200, 38, 23, 1)" offset="100%"/></linearGradient></defs><path style="transform:translate(0, 0px); opacity:1" fill="url(#sw-gradient-0)" d="M0,60L15,55C30,50,60,40,90,30C120,20,150,10,180,20C210,30,240,60,270,66.7C300,73,330,57,360,50C390,43,420,47,450,55C480,63,510,77,540,81.7C570,87,600,83,630,78.3C660,73,690,67,720,53.3C750,40,780,20,810,15C840,10,870,20,900,35C930,50,960,70,990,76.7C1020,83,1050,77,1080,61.7C1110,47,1140,23,1170,21.7C1200,20,1230,40,1260,51.7C1290,63,1320,67,1350,63.3C1380,60,1410,50,1440,38.3C1470,27,1500,13,1530,15C1560,17,1590,33,1620,35C1650,37,1680,23,1710,15C1740,7,1770,3,1800,1.7C1830,0,1860,0,1890,1.7C1920,3,1950,7,1980,13.3C2010,20,2040,30,2070,33.3C2100,37,2130,33,2145,31.7L2160,30L2160,100L2145,100C2130,100,2100,100,2070,100C2040,100,2010,100,1980,100C1950,100,1920,100,1890,100C1860,100,1830,100,1800,100C1770,100,1740,100,1710,100C1680,100,1650,100,1620,100C1590,100,1560,100,1530,100C1500,100,1470,100,1440,100C1410,100,1380,100,1350,100C1320,100,1290,100,1260,100C1230,100,1200,100,1170,100C1140,100,1110,100,1080,100C1050,100,1020,100,990,100C960,100,930,100,900,100C870,100,840,100,810,100C780,100,750,100,720,100C690,100,660,100,630,100C600,100,570,100,540,100C510,100,480,100,450,100C420,100,390,100,360,100C330,100,300,100,270,100C240,100,210,100,180,100C150,100,120,100,90,100C60,100,30,100,15,100L0,100Z"/></svg>